<svg xmlns="http://www.w3.org/2000/svg" width="31" height="31" viewBox="0 0 31 31"><g><g opacity="-1"><path fill="#a1859e" d="M15.344.228c8.284 0 15 6.716 15 15 0 8.284-6.716 15-15 15-8.284 0-15-6.716-15-15 0-8.284 6.716-15 15-15z"/></g><g opacity="-1"><path fill="#fff" d="M14.74 17.786c-.152-.018-.295-.018-.447-.018-1.464 0-3.642.465-3.642 2.321 0 1.714 1.928 2.375 3.357 2.375 1.33 0 2.811-.536 2.811-2.098 0-1.25-1.169-1.946-2.08-2.58zm-1.375-8.712c-1.17 0-1.74 1.036-1.74 2.089 0 1.357.892 3.481 2.48 3.481 1.224 0 1.643-.883 1.643-1.973 0-1.356-.732-3.597-2.383-3.597zm5.115-.643l-1.205.705H16.07c.883.554 1.33 1.634 1.33 2.634 0 2.366-2 2.544-2 3.722 0 1.152 2.678 1.607 2.678 4.106 0 1.027-.49 1.857-1.25 2.518-1.026.883-2.428 1.169-3.749 1.169C11.41 23.285 9 22.57 9 20.5c0-.42.144-.83.331-1.205.795-1.607 3.276-2.017 4.874-2.062-.295-.384-.571-.83-.571-1.33 0-.295.107-.491.196-.768-.214.027-.42.045-.625.045-1.731 0-3.231-1.277-3.231-3.071 0-1.696 1.312-3.142 2.937-3.5a8.034 8.034 0 0 1 1.669-.178zm5.373 3.428h-2.285v2.285h-1.142V11.86H18.14v-1.142h2.285V8.43h1.142v2.286h2.285z"/></g></g></svg>