<svg xmlns="http://www.w3.org/2000/svg" width="31" height="31" viewBox="0 0 31 31"><g><g opacity="-1"><path fill="#a1859e" d="M15.344.228c8.284 0 15 6.716 15 15 0 8.284-6.716 15-15 15-8.284 0-15-6.716-15-15 0-8.284 6.716-15 15-15z"/></g><g opacity="-1"><path fill="#fff" d="M12.115 12.868H9.17v8.846h2.945zm.188-2.732c-.01-.865-.634-1.526-1.643-1.526-1 0-1.66.66-1.66 1.526 0 .848.634 1.527 1.625 1.527h.017c1.027 0 1.67-.679 1.66-1.527zm10.408 6.508c0-2.714-1.446-3.982-3.383-3.982-1.565 0-2.264.857-2.651 1.463v-1.257H13.74s.036.83 0 8.846h2.937v-4.937c0-.267.026-.526.098-.723.214-.526.696-1.07 1.508-1.07 1.063 0 1.491.812 1.491 1.999v4.73h2.937z"/></g></g></svg>