<svg xmlns="http://www.w3.org/2000/svg" width="60" height="60" viewBox="0 0 60 60"><g><g opacity="-1"><path fill="#82c7bc" d="M30 .019c16.569 0 30 13.432 30 30 0 16.569-13.431 30-30 30-16.568 0-30-13.431-30-30 0-16.568 13.432-30 30-30z"/></g><g opacity="-1"><path fill="#fff" d="M28.792 35.135c-.304-.036-.59-.036-.893-.036-2.928 0-7.284.929-7.284 4.642 0 3.428 3.856 4.749 6.713 4.749 2.66 0 5.623-1.071 5.623-4.195 0-2.5-2.338-3.892-4.16-5.16zm-2.75-17.424c-2.338 0-3.481 2.07-3.481 4.178 0 2.713 1.785 6.962 4.963 6.962 2.446 0 3.285-1.767 3.285-3.946 0-2.713-1.464-7.194-4.767-7.194zm10.23-1.286l-2.41 1.41h-2.41c1.767 1.107 2.66 3.268 2.66 5.267 0 4.732-4 5.089-4 7.445 0 2.303 5.357 3.214 5.357 8.212 0 2.053-.982 3.713-2.5 5.035-2.053 1.767-4.856 2.338-7.498 2.338-3.338 0-8.159-1.428-8.159-5.57 0-.839.286-1.66.66-2.41 1.59-3.214 6.553-4.035 9.749-4.124-.59-.767-1.143-1.66-1.143-2.66 0-.589.214-.982.393-1.535-.429.053-.84.09-1.25.09-3.463 0-6.463-2.554-6.463-6.143 0-3.391 2.625-6.284 5.874-6.998a16.066 16.066 0 0 1 3.338-.357zm10.747 6.856h-4.57v4.57h-2.285v-4.57h-4.57v-2.285h4.57v-4.57h2.285v4.57h4.57z"/></g></g></svg>