<svg xmlns="http://www.w3.org/2000/svg" width="60" height="60" viewBox="0 0 60 60"><g><g opacity="-1"><path fill="#82c7bc" d="M30 .019c16.569 0 30 13.432 30 30 0 16.569-13.431 30-30 30-16.568 0-30-13.431-30-30 0-16.568 13.432-30 30-30z"/></g><g opacity="-1"><path fill="#fff" d="M23.543 25.298H17.65V42.99h5.892zm.375-5.463c-.018-1.731-1.268-3.053-3.285-3.053-2 0-3.32 1.322-3.32 3.053 0 1.696 1.267 3.053 3.249 3.053h.035c2.053 0 3.339-1.357 3.32-3.053zM44.734 32.85c0-5.427-2.892-7.963-6.766-7.963-3.13 0-4.527 1.714-5.302 2.926v-2.515h-5.874s.072 1.66 0 17.692h5.874v-9.872c0-.536.053-1.054.196-1.447.429-1.053 1.393-2.142 3.017-2.142 2.125 0 2.982 1.625 2.982 4v9.461h5.873z"/></g></g></svg>